<svg xmlns="http://www.w3.org/2000/svg" width="1280" height="1280" viewBox="0 0 1600 1220"><path fill="#FDFDFD" d="M0 0h1600v1220H0z"/><path fill="#452628" d="M1018 483h31l6 1-1 2 7 2-3 2 5 1v2l3 2 4 2-1 5h2l-2 4h-2l-2-4h2v-2l-9 1-10 2 5 2-1 3 3 1 1 3 3 1-1 3 2 5h-2v2h-3l-2-5h-4v-3h-5v-2l-5-1-6-1-2 2-1 2 2 1v2h5v3l-4 3h-21l-1-1-5 5 7 2 2 2-3 2-11 1v-2h-2v2l-5 3 1 5h-12l-4 1 15 1 3 2h-18v2l5 1h26l4 1 30 1 8 1-4 2 21 3-4 2 5 2 7 1v3l2 1v2l8 1-3 3 5 1v2l3 1 5 7 2 1 2 6h3l2 13h3l1 2 1 14v42l-2 6-2 2v4h-2l1 3-3 8-4 9-4 6-3 7-11 16-14 15-4 3h-3l-2 5-4 2-4 4-3 1-4 4-6 3-1 2-9 3-1 3-8 1-1 4-11 3v2l-6 2-7 1v2l-9 3-14-1 3-3 12-4 4-3 9-3 3-3 8-1 1-3 9-4 4-4 7-2 1-3 6-4 8-6 10-9 12-12 13-19 8-16 5-12 4-17 1-5v-32h-1l-1-7-3-9-2-5-3-1-1-5-5-2v-5l-5-1-1-4-5-1-4-2 1-2-5-1-9-1 2-2-3-2-21-2-7-2-33-1v1l-8 1h-9l-1 2-21 2-5 1 6 1v1l-21 2v2l-13 3h-3l1 2-12 4-4 3h-4v2l-8 1 1 2-13 4-1 2 4 3-7 2 17 3-2 4h5l1 2 4 1v1l1 3 5 1-1 5h3l1 2 2-1 1 7h2l1 5h2l1 23-1 13h-2l-2 4 2 7 3 2 7 1v2h2l2 5-1 8-1 11 3-21 2 3 1 1 1-2 2 6 1 16 2 1-1 3-2 4-3 1 1 4h-2l-2 5-3 1-1 2-4 1-5 2h-3l-1 3-11 1-8-1-4-1 1-2h5v-1l5-1v-1l6-1-3-3 10-2 2-4 2 1 2-3 3-3 1-5v-11l-2-14-1 2h-3v13l-1 7-2-3-1 5-1 2-2 6-4-2v4h-2v2l-4-1-1-7 1-6v-17l-1-2-2-1 2-2 1-6 3-2 1-3v-12l-1-7-2 7-2-1-1 7-4 2v-5l-1 4-1 2-1-1-4 13-2-2-1 5h-2l1 10 2 3h2l2 18v6l-2 1h-3l-2 8-3-1-3 13h-1l-1-5-2 3v14l8-2h5l1-3 2 1-1-3h3l1-4 4 5-1 9-2 2-2 1 1 2h3l1-4 4 1 2-5h4v8l-1 2h-3v-3h-2v4h3v2h-2l-1 4-5 4-4 2 1 2-5 2-12 1h-16l-4 1-2 1 3 2-2 2 1 5 28-1 8-1v-3l6-1v-2l4-2v-3l4-1 3-4h3l2-9h2l1-5h2v-19h2v-2h2l2 19 1-5 2 4-4 18-5 7v3l6 1 15 1v2l-6 1h-18l-9 4h-2v2l-10 3 1 2-11 1h-15l-9-1 3-3-3-2 21-1-12-1h-12l-2 23h-1v-5h-2l-1 2-2-3-1-11-2 2-2-5-1-7-2-1v-2h3v-2l-4 1-2-3 2-4h4l1-6h3l1-4h4l1-6 2-1 1-3h1l1-2 2-3 2-7 2 1v3l1-5 1-19v-65l-2-26-2 4-1-7-3-5v-2h-3l2 2-3 3-3 1-3-1 2 3h-2v2h-5l-1 3h-2l-3-3v-3h-2v-2l3-1 5 1v-6l-5-1v3l-3 1-3-1 1 3h-2v2h-5l1 3-6 2-1 2h-5l2 4-9-1-5-2 4-1v-2l7-1-2-4 4-2 4 1v-2h2l-1-2-7-2v2h-6l2 3h-2l-1 2-4 1-3 1 4 2v2l-6-2v2h-6l1 2 8 2 9 1-2 2 1 2h-8v2l-9-1 4-2-1-3-4 1-4-1-3 5h-5v2l-4 3 11 2 1 2-7 1v-2l-9-1-6 5-7 1 2 5-5 1 4 2 5 2-1 5 5-1 1 4-1 2 2 1v2l1 4 2-2 1 8v12l-1 5h-2l-2-5-1-7-1-3h-2l-1 2-2-9-4-1h-27l-5-3v2l-9 3v3l-8 2v2h-3v2l-6 3-3 4-2-1v2l-9 3v2l-4-1v2l2 1-5 1-2 5 2 3v3l1 2 2 1 1 3 5 3v2l2 2 6 1-1 4-8 2h-3v-2l-4 1v-2h-3v-3l-5 1-2-4-4-1 1-3-3-3h-4v-2h-4v3h-2l-1 3-4 2-1 2 6 2-1 2 2 1 1 3h2l1 4 5 2 2 2-1 1 11 3-2 1v2h-3v2l4-1 9 1 3 3-5 2h-8l-6-3v-1l-9-1v-2l-4-1-1-2-5-2-2-3 1-1h-6l2-1v-2h-2v-2l-5-1v-2l-5 2h-5l2 2-2 1 1 2-9 1-1 4-9 1v6l-4 2 15 5 5 1-2 2 20 2-2 2 5 1 52 3 3 2h-13v2l-13 1 8 1v2l-7 1h-40l-2-3-20-2-5-2-4-3-7-1-4-2-1-2-3-1h-10l-4 2 1 2-5 1h-8l-5-1-1-3 13-2v-3h3v-2l9-1-2-2h3l1-3 7-2v-2l5-2h7l-3-3h3v-2l7-2v-3l9-3-1-2 10-4-1-2 9-2 2 1v-2l-3-1 6-3 1-1 3-4 3-1 4-1 2-4 6-2v-2l2-2 5 1-1-3 5-2v-2l7-3v-2l7-2 2-4 7-1v-3h2l1-2 3-1 3-2 3-3 5-2-1-2 8-2v-2l3-3 7-1-2-4 12-2-5-4 11-2v-4l8-1v-4l-2-1h7l3-4h2v-2l6-1-1-4 8-1-1-2 5 1v-2l-2-1h3v-2l5-1-1-3 8-2 1-3 8-4-2-2 11-2v-2l-3-1 4-1h2l1-2 4-1-1-2 2-1h7l-2-5h6v-2l6-1-1-3 6-1 2 1v-3l4 1-1-1v-2l-5-1v-1l12-2-13-2-32-2-10-2v-1l21-2 34-1h16l2-2-1-1-41-1v-1l28-2-21-2-34-1-23-2-1-3 17-1 14-2h59l1-1-6-1-64-1v-1l36-1 12-1-11-1-55-1v2l15 1v1l-30 1h-16l-15-3 3-3 23-2-9-2v-1l26-2 3-1-1-2 23-1 9-1h23l23 1 1-5-3-6-2 1v-2l-2-2v-3l-4-1v-2l-2-1 1-2-10-2 1-3-10-2-3-3-20-2h-23l-38 1 14 2v1l-34 3 4 3-17 3 2 2-3 2h-6l-2 5h-4v2h-2l-4 6-4-1 1 4-2 3-3 1-2 5-2 3-3 3-1-11 2-6 3 1 4-8 4-1 1-4 4-1v-3h3l1-3 7-2-1-4 13-2-4-3 17-3-4-2 4-1 17-2 10-2-9-1v-1l20-1v1l21-1h35l14 1v1h-5v2l7 1 10 2-3 3 5 1v3l5-1-2 3 3-1 2 3 4 4 1 6 5 1 2 8 2-1 3 7v5l4 2 2 9 2 3h2l-1-4h3l2-2 2 1-1-3 5-3h1l2-5h6l-1-4 3 1v-2l3-2h3l-1-4 3 1v-3l5 1v-5l6-1 1-4 3 2-1-3 3 1 1-2h4l1-5h6v-2l2-1v-2l4 1v-2l4-1 3-3 9-2 1-4 5-1v-1l6-1-2-2 14-3 1-2 6-1v-2l15-2-5-1v-1z"/><path fill="#442527" d="M1039 586h9v5h6v5l2 2 2-1 3 9h3l2 9v5l3-1 2 16 1 12-1 21-1 4h-2l-1 7-4 9-11 18-10 11-7 8-4 4h-2v2l-13 10-4 4-9 4-1 2-5 2h-3v2h-3v2l-8 1v2l-7 3h-5v2l-2 2v1h-16v-2l5-3 5-2v-2l10-4v-3l8-1v-3l8-4 10-8 9-7 12-11 11-12 11-15 9-15 3-7 3-14 1-19-2-19-3-6v-8l-1 2-4-2-1-6-4-1v-5l-7-1 1-3z"/><path fill="#452628" d="M867 720h2l1 14 1 15 1 2v14l8-2h5l1-3 2 1-1-3h3l1-4 4 5-1 9-2 2-2 1 1 2h3l1-4 4 1 2-5h4v8l-1 2h-3v-3h-2v4h3v2h-2l-1 4-5 4-4 2 1 2-5 2-12 1h-16l-4 1-2 1 3 2-2 2 1 5 28-1 8-1v-3l6-1v-2l4-2v-3l4-1 3-4h3l2-9h2l1-5h2v-19h2v-2h2l2 19 1-5 2 4-4 18-5 7v3l6 1 15 1v2l-6 1h-18l-9 4h-2v2l-10 3 1 2-11 1h-15l-9-1 3-3-3-2 21-1-12-1h-12l-2 23h-1v-5h-2l-1 2-2-3-1-11-2 2-2-5-1-7-2-1v-2h3v-2l-4 1-2-3 2-4h4l1-6h3l1-4h4l1-6 2-1 1-3h1l1-2 2-3 2-7 2 1v3l1-5z"/><path fill="#442527" d="M991 586h11l5 2-1 2-3 1h7l5 1v4l4 1v2h2v3l5 1 1 5h3l2 8v6l3-4 1 8 1 28-2 9-6 16h-2l-2 6-8 11-5 6-8 7-12 10-16 10-5 2-4 3-4 2h-3v2l-5 2h-3v-2l-4 1-3-2 3-2h10v-2h-3l1-3 6-3 4-4 11-8 12-11 8-8 9-12 4-7h2l3-9 3-6 3-12 2-12v-2l-1-3-1-6h-1l-1-9-3-3v-2h-2l-1-7-3 1v-2h-2v-3h-2v-2h-2v-2h-3v-2l-4-1 1-2-9-2v-2h-3v-2z"/><path fill="#452628" d="M936 587h18l6 1-1 2 7 1 7 2v5l7-1-1 5 5 1 2 4 1 3h3l-1 2h2l2 8v2l2-2 2 13 1 3v16l-1 12h-2l1 4h-2l-2 10-6 9-5 6h-2v3h-3l-2 4-4 2-1 3-6 3-3 3-7 3-1 2-7 1-1-3 1-2 7-1-2-5 5-1 1-5h6v-6l4 1 4-10h3l1-5 2-5h2l2-9 1-8 1-5v-20l-2-6-2-10-3 1v-4h-2v-5h-4l-1-6-6 1-1-4v-1h-3v-2l-7-1-2-2-5-1-4-2-9-1-1-2z"/><path fill="#442527" d="m553 791 11 1 1 3-12 3-3 1v2l12 3-4 1v2l19 2-2 2-3 1 27 3v1l-5 1 12 2 36 2h40l14 1-3 2-69 1 34 1 9 1-3 3-12 1h-42v-2l-24-3-12-3-1-2h-7l-7-2-8-2-2-2-20-2 3-2-5-2-14-1 4-2-1-2-12-4 3-2 4-1 26-1 10-2-2-2z"/><path fill="#47292B" d="m711 671 7 1 1 4-7 2-1 4-9 3 1 2h-3l-1 2-4 1-1 3-9 4 1 2-9 2v3l-6 1v2l-6-2v2l4 1-2 3-6 1-2 4-5 2h-4l1 3-8 3v2l-9 4-2 1 1 3h-8v2l-2 1 1 2-10 2 1 4-7 1-1 2-3-1v2l3 1v1l-10 2 1 2-5 2h-8l2 5-10 1-3-2v-4l8-1v-3l5-2h5l-1-3 2-2 6-1v-2h2l1-3 8-1v-2l-2-2 5-1 2 1v-2h3l-3-3h6v-2h5l-1-1 4-4 7-3-1-2 9-2-2-3 8-2 5-5 5-1 3-5 8-2-1-2 9-3v-3h4v-2l6 1 1-1h-3v-2h2v-2l8-4 3-3h6v-4z"/><path fill="#442527" d="M814 666h27l8 1 1 2-21 5v1l11 2v1l-6 2 2 1 18 2 3 2-2 1 2 2-7 2v2l-3 2-6 1h-39l-1 5-3-1-1-10 1-8 3 1 1-5 2-3 3 1-2-3 11-3 1-1z"/><path fill="#48292B" d="m922 227 14 1 4 2-4 2-12 1-1 4-6 2-1 3-4 2v6h-2l1 9 1 5 1 4 3-1 1 2-1 3h3l1 2 2-1 1 4 1 3 3-1 2 7 3 3 1-2 2 6v2l3 3 1 8-1 5-2 3-1 3h-2v4h-2l-1 3h-3l-1 4-7 1-5-1v-2l-3 1-3-2 9-1 2 1v-2h4l1-6 5 2-2-2v-13l-1-6-2 2-2-10-5-2-1-5h-3l-2-3-1-2-4 1v-8h-2l-1-4-2 2-1-2-1-10 2-11 4-2 1-6h5v-4l6-1 1-2h4v-2l-3-1z"/><path fill="#462729" d="M1116 335h9l3 3-2 7 1 2h-6l1 3h-7l-1-6-1 1h-5v2l-9 1-6 2v2l-12 2 1 3-6 1-4 2-5 5-8 1-1 3 5 2v1h-8l2 2-10 2-3 1v2h-3v2h-2l-2 4-1 5 1 6-5 2-2-1v-4h2l-2-2-4 1-1-4 1-4 4-4 3-7-10-1v-1h11v-2h5l3-3 4-1 7-4 3-3 9-3-3-2 13-2v-3l15-2-4-2 6-3 16-2-6-2 3-1z"/><path fill="#442527" d="M919 751h2l2 19 1-5 2 4-4 18-5 7v3l6 1 15 1v2l-6 1h-18l-9 4h-2v2l-10 3 1 2-11 1h-15l-9-1 3-3-3-2 21-1-7-1v-2l17-2v-3l6-1v-2l4-2v-3l4-1 3-4h3l2-9h2l1-5h2v-19h2z"/><path fill="#482A2C" d="M1000 272h5l7 2-1 2h-3l-1 5h-3l1 2-4-1v3l-5-1v5l-6 1v2l-4 3h-3v2l-4-1 1 4-1 1 3 4-5-2-1 3-3-1v2l-5-1-1 5h-3l-1 2-1-1v4h-2v2h-3l-2 6h-2l-2 12-1 5 13 1v1l-9 2-1 2-5-1-4-1 1-6-5 2-1-4h2l-2-4 2-2 2-1 1-7 6-7 1-2h2v-2h3v-4l1-3h4l1-6 3-1 1-2 7-2v-3l6-3v-2h2l1-2 3-2 5 1-2-4 9-2 1-1-2-2h4z"/><path fill="#442527" d="m794 763 8 1 1 3 8 2 6 1-4 3v2l2 2-2 2-10 2-1 1-6 3h-27l2-2-6-1v-1l-7-2-1-4 6-3-3-2 1-1 11-2 3 1v-2l-5-1 4-1h6v4l10-1v-3z"/><path fill="#462729" d="M925 603h11l3 3-1 2h3l1 2 2 1-1 2 3 1 1 6 3-2 1 3 2 14 2-4 1 20-1 6-2-3-1 4-1 11-3 3h-2l-1 7h-2l-1 2-3-1 1-14 4-2-1-4v-23l-1 5h-1l-2-20h-3v-3h-2v-4l-6-1 1-5-7-1-1-3z"/><path fill="#442527" d="m493 360 2 3 1 11 2-5h1l3 12 2 1v-2l2 1 2 11 4-1 2 9 1 2h2l2 8 4-1v5l2 1-1 5h2l1-2v2h2l1 5 5 2-1 5h-2l1 4-4-2-3 2h-2l-1-3-1-2-3 1-2-6v-5l-4 2-2-9-2-3h-2l-2-9-2-3-2 2-2-10-4-5-1-6-1-3-3-1-1-11 2-4 2 1z"/><path fill="#452628" d="M924 691h2l2 5-1 8-1 11 3-21 2 3 1 1 1-2 2 6 1 16 2 1-1 3-2 4-3 1 1 4h-2l-2 5-3 1-1 2-4 1-5 2h-3l-1 3-11 1-8-1-4-1 1-2h5v-1l5-1v-1l6-1-3-3 10-2 2-4 2 1 2-3 3-3 1-5v-11l-1-6v-8h2z"/><path fill="#452729" d="m491 312 5 2v2h-2v6l-4 2-1 4h-2v2h-3v6h-3l2 4 1 6v7l-5-1-3-9h-2l-2 6-2-1v-2l-2 1v4l-4 1-1 3-1-1-1 5-5 5-1 4-4 2-1-4 1-2h-2l1-8 4-5 1-3 5-2 3-7h2l1-3 5-2 2-6 2 1 2-2v-2l4-3h2l3-5h3v-4z"/><path fill="#482A2C" d="m1032 342 4 1-1 4 2 1-1 2h-2v2l-3 1-3 4-3 2-1 2-5 4-5 2-1 2 2 1-6 2-1 3h-5v2l-5 3-5 1h-1v2l-6 3-6 1v-2l-6 1v-4l11-3h3v-3l-3-1 2-1 8-1h-16v1h-8l-6-1 1-3h28l8-3 4-5 5-2v-4h3l-1-3 5 1v-3l4-2 3-2h2l1-3 4 3-1-4z"/><path fill="#4A2C2E" d="M715 761h1l2 9v3l4-2 3 9 3-1 1 8h4l2 5h2v3l4 1v3h3l2 4 5 1 1 3-5 1-8 1v-3h-2l-2 13-1 10h-1l-1-5-2 6h-1l-2-16v-10l1-10-4-1-1-8-5 2-1-8-4-1-1-2v-12z"/><path fill="#442527" d="M613 660h12l6 2 2 2-19 3 1 2-9 3-7 1 1 3-9 2h-7l3 3-11 2-5 1-1 4-7 1h-6l1 4-7 2-4 1v3l-5 1-5-1-2-4h6l3-2h3l-1-3 11-3 2-4 11-1-4-2 4-2 9-2v-3l15-3-2-1v-2l16-3-2-2z"/><path fill="#492B2D" d="m748 267 3 1v29h-1l-1-12-1 12v11l2-1v3l-3 2-2 11h-1l-1-5-2 13-2 9-2-3-2 4-1-7v-11l-2-4h2l1-4 2-4 2-7 2-3h-2l-1-4 2-19 1-6 2-4 2 5 1 1z"/><path fill="#4E3133" d="m634 279 1 4h2l1 5-1 4 3-1 2 4 2 1 1 5h4v5l3 1 2-1 1 6-1 2 3 1 1 4 2-1 1 4h-2l2 4-2 11-5 3-2 2-3-2-1-21-1-5-2 4-2-10-5-2-1-5-5 1-1-5 1-9-1-2h2z"/><path fill="#4D2F31" d="m543 342 2 4 1 3 1 35 2 3 2-2v7l5 1 5-1 1-2 1 7-4 1 1 4-9 1-3-1-2-3h-2l-1-2-3-3-2-11h-2v-22l1-6h3z"/><path fill="#492B2D" d="M1240 934h2l-1 6 4 2-2 3h-2l-1 2h-2l-1 9 1 4 2 1-1 3 2 1 1 7h-2v6l-3-3v-13h-2l1 5-3-2-2 3-1 8-3 6-1 6v16l4 2v1h-11v-31l2-1 2-5h2l2-10h2l2-10 2-5 2 2 1-7 2-5z"/><path fill="#47282A" d="M1061 392h40l8 1v2l2 1-1 1-26 1-12 2v3l-8 1v2h-3l1 2-2 1-1 8 1 4 3 1 1 3-3 1v-3l-6 1-1-9-2-7 1-8 3-2-3-2 9-2z"/><path fill="#46282A" d="M925 929h2l1 5 1 3h-2v2h2l-1 4-4 5-2 6 1 2v10l-2 2-1-1-2 3v-2l-2 1-2 4-2 12-1 16v2h2v4l-5 1-3-1 1-36 5-2 1-10 2-4 1 1 1-2h2l-1-5 2-7h2v-2h2l1-9z"/><path fill="#452729" d="m884 283 5 2-1 4-4 2v3l-1 1-1 23 6 1-1 4 15 2v1l-7 1 2 2h-13v-2l-3 1 1-3h2l-1-2-4 2-3-4v-3l-4 2-2-8 1-11-1-2 2-8h2v-2h3l1-5h5z"/><path fill="#492B2D" d="m781 264 3 1 3 4-2 3h-2l-1 2-1-3v4l1 2h-2v3h-2l-1 5-2-2-2 15h1l1 6-1 1 7 1v3l2 2-9 1h-8l1-5h-2l-1 3-2-7-1-3h-2l-1 2 1-4 3-7 2-9 2 2 2-5 4-2h2l1-6 3 1v-5h4z"/><path fill="#46282A" d="m680 272 3 2v44l3-1v2l4-1 6 1-4 4h-5l-2 4-2-3-3 1v-2l-3 1-2-5-1-2-2-1 1-24v-7l2 1 1-8h1l1-5z"/><path fill="#462729" d="M592 308h4v4l3 1 1 27 3 7 1 4 14 2-3 3-6 1-1 5-4-1-1-2-2 1-3-2v-2h-2l-1-5-3 3z"/><path fill="#47282A" d="m1009 322 3 1 4 2v3l-3 2 1 2-2 2-9 2v2h-2l1 3-6 3v3l-4 1v3h4l2 4-6 2-4 1-3-3-1-13v-4l1-2 5-1 3-2 3-1-1-2 6-1v-2l8-3z"/><path fill="#48292B" d="M720 267h2v18h-1v-7h-2v24l3 3h-2v2l4-1-1 3 5 1-4 1-7 1-1-2-2 1-1-2-2-1v-1l-2-2-3-10 1-3v-7h1l1 5h2l1-18 2-4v4l3 1 1-5z"/><path fill="#492B2D" d="m320 920 1 3 3 1v10l2 2v3h3v3l3 1-1 2 3-1v2l3-1v2h5v3l6 2 2 4 2 1 1 15-2 6h-3l-2-17-4 1 1-4-3-2h-6l2-5-5 1v-2h-5l2-4-3 1-1-2-2 1v-3l-2 1-2-7v-6h2l-2-6z"/><path fill="#523637" d="M577 921h2l3 6-3 6h-2l-2 5 1 4h-2l1 6h-2v3l-2 1-1 14 1 4-3 14-3-3v-2h-2l-1 2-1-7h-2v-8l4-1 1 2v-20l3-1v2h2v-10l2-8 2 2 1 3 1-4-1-3h2l-1-3z"/><path fill="#442527" d="M567 340h1l1 11 2 7 2-4 1 1 1 16 3 1h-2v2l8 1 3 1v2l-3 2-10 1h-5l-1-1-2 4-1-4 1-3-2-1v-25h2l-1-6z"/><path fill="#482A2C" d="m664 934 2 1v5l1 3v4h9l6 1-4 2h-12l-2 3-1-1-2 2-1-2 1 6-2 13 1 1-1 9 4-1v2l3-1 2 2-6 2h-5l-2-3 1-5h-2l-1 2-3-5-1-4 5-5 1-11v-6l4-1 2-7 1-2-2-1 3-1z"/><path fill="#4E3133" d="m960 231 2 1 1 10-2 8h-3l-1 7-5 1-1 6-3 2h-3l-1 3-2 3-1-6h-2l1-4 2-3 2 1-1-3 5-8h3l3-9 2-4h2l-1-3z"/><path fill="#48292B" d="M805 277h4l1 2 3 1-2 3h-2l-1 7-3 3-1 5-1 2 7 2v2l-4 2 1 3v2l-4-2v-3h-2v2l-4 1 1-4h-2l1-5-4 1-1-3-3 2-3-1 2-2 2-1 5 1v-2l-4 1v-2h3v-2h-2l1-2 3 1 2-5 4-3 2-5z"/><path fill="#442527" d="m537 937 2 2 1 4v23h-1l-1-7-2 11-2 17-5-2-4 1-1-5 3-8h1l1 4 1-19h2l3-12z"/><path fill="#513537" d="m1044 946 8 1 2 10-1 7 1 3h-3v2h-2l1 4-2 1v4l-5 1-1-6v-11l3-3-5-4v-2h3l-3-6z"/><path fill="#4A2D2F" d="m1101 940 4 1 1 30h2l-1-6h2v10l-2-2-3 9-6 2h-10l-1-3h7l2 1v-2h3v-20l-1-4-3-2h3l1-5 1-1v-7z"/><path fill="#442527" d="M661 643h15l5 2-3 3-14 2v2l-9 3-15-1-4-2v-2l19-3v-2l-3-1zM579 676l1 2 5 1 2 2-11 2-5 1-1 4-7 1h-6l1 4-7 2-4 1v3l-5 1-5-1-2-4h6l3-2h3l-1-3 11-3 2-4 11-1-4-2 4-2z"/><path fill="#4B2D2F" d="M441 936h2l1 8-1 3h-2v2l2 1h-2l3 4-4 4-2 6v13l-2 5-3-4-2-1 2-5h-2v2l-4-1 1-4 3-3 1 3v-11l1-9 1 4 2-5 2-1 1-9z"/><path fill="#442527" d="M713 626h17l3 2-1 2-8 2h-9v3l-6 2h-19l-7-1v-1l9-3 15-2-4-2 1-1zM723 906h38l9 1-3 2-21 3-1 14-3-1-2-12-2-1-14-1v-3l-3 1-4-2zM533 906h33l10 1-1 2-4 1-15 1-4 3 1 2-2 10h-3l-1-4v-11h-16v-2l-7-1v-1z"/><path fill="#462729" d="M372 936h3l1 10 2 4-4-1-2 4-1-1-2 5 1 4-1 3h-2l2 5v11l6 2-3 3-2-1-3 1-3-2 2-13-2-1v-10l1-8v-3l2-2 3-1-1-3z"/><path fill="#442527" d="m417 950 3 3 1 5v7l-2 5-4 7 1 5-5 7h-2l-1 7h-3l-1-3 1-4h-2v-2h3l-1-3h3v3h2v-6l-2-1h2l-1-4 1-4v-3l1-3h2l1-3v2h2l-1-4z"/><path fill="#54383A" d="M629 311h1l1 11 1 4h3v2l-3 2-1 5h2l-1 7-4-1-4 1-3-2v-17l5 1 1-2 1-9z"/><path fill="#523637" d="M1020 953h5v2l4-1v5l2 1-2 1v6l-2-1-3 11-2-1-1 2h-2l-2 3-1-3h-3l2-4-1-3 4-4 1-7z"/><path fill="#4B2E30" d="m1175 920 4 4h1v10l1 3-3 1-1 3h-2l-1 8-1 5h-2l-2 4h-1l-1-12 1-11 4-1z"/><path fill="#452729" d="m589 949 1 3 3-1 1 6-2 1v9l1 2v10h-2l-1 2-4-1-1-7 1-16h-6l-1-6h8z"/><path fill="#442527" d="M851 951h7l3 1 1 6h2l-1 4-3-1v18h-2l-1 2-3-5v-19l-6-2-1-2z"/><path fill="#452729" d="m834 951 2 2 2 8-2 10-3 3-2-1 1 3-3 4h-2v-2l-5-1 2-1 3-14 2 2 3-1-1-5z"/><path fill="#442628" d="m1113 398 2 1 1 9h-2l-1 2-3-2 1 4-2 2h-22l-5-2-1-3 24-1-2-3 8-1-1-5z"/><path fill="#4D2F31" d="m998 951 4 1v6l2 1-1 9-1 6 1 3-3 3-7-1-1-4 2-4 1-3 3 2v-2l-2-1 1-13z"/><path fill="#48292B" d="m1066 951 5 2-1 5 2 1-1 7v12h-1l-1 5-3-1-1-4-1-3 1-5-1-5v-10h-2l-1-3h4z"/><path fill="#492B2D" d="m400 949 3 4-1 5-1-2h-2v5h-2l1 2v9l-1 3h6v3h-9l-2-6-4 1 1-3h2v-2h2l-1-7 2-7h2l1-3 3 1z"/><path fill="#563A3B" d="M612 959h2l-1 4 3-1-2 11v5l-1 1 4 3v2l-7 1v-3h-2v-2l-3-1v-2h-2v-2h2l-1-4 4-1 1-7z"/><path fill="#442527" d="m895 957 4 2 1 13-1 6h-3l-1 2-2-2v5l-6 1h-8l-1-3 2-2 6 2 3-1 1-5 3-2z"/><path fill="#5B4041" d="M738 310h2l1 11v10l-2 9-2-3-2 4-1-7v-11l-2-4h2l1-4 2-4z"/><path fill="#63494B" d="M567 960h3v6l1 4-3 14-3-3v-2h-2l-1 2-1-7h-2v-8l4-1 1 3z"/><path fill="#4A2C2E" d="M462 952h4l-1 5h-2l-1 5-2 1 4 1h7l1 2-4 1-6-1-1 3-6 2-1 2-3 1-1-3 2-3h3l1-2-3-1 3-3v-4l3-3h2z"/><path fill="#492B2D" d="m1261 957 4 2 1 5 2 2-5 3h-2l2 4 1 4-2 6h-2l-1-6-2-2v-1l-4-2 2-4 2-1 2-6z"/><path fill="#48292B" d="M591 279h6l2 7-2 7-1-2-2 4h-7v-12l6-1v-2z"/><path fill="#492B2D" d="m962 945 1 2 6-1 5 2-1 7-4 2-2-4 1 5v8l-3 1-1-4v-9l1-2-6-1h-3l1-2-3-1 5-2 3 1z"/><path fill="#503335" d="M632 962h5l1 5h-2v6l1 2-1 3h-2l-1 2v-2l-5 2v-2h-5l2-3h2l-1-3 1-5 2 1 2-2z"/><path fill="#442527" d="m1209 948 3 1 1 7-2 4-2 1-3 7 2 1-1 1v9h-2l-1 2-1-2-1-15 1-7h2l2-2 1 2v-3h-2l2-4zM949 952h2l-1 5 1 4h-2v4l-3 1v10l2 1h-3v2l-4 1-2-5 1-3h-2l2-5 2-3h2l2-7 1-2h3zM730 563h10l10 1 1 3-1 1-10 1h-10l-10-3v-1z"/><path fill="#4A2C2E" d="m811 957 2 2 1 8-1 2-3 1-1 9-4 2v-2h-3l1-10 1-2 4-2 2-3z"/><path fill="#FEFEFE" d="M869 675h1l1 36v39h-1l-1-23-1-7v-28z"/><path fill="#442527" d="m960 375 3 1h-2l1 5v5h9l7 1 1 2-4 3h-12l-3-2-1-3-2-1v-9zM630 654h9l8 2v2l-7 2h-14l-7-3v-1zM726 952h1l2 18-2 9 1 3h-3l-1 4v-14h-2l1-14 2-2zM309 961l4 3 1 14-1 2h2l1-2 1 3 3 1-3 3h-3l-3-4h-2l-1-3v-16zM687 637l13 1-4 2 1 2-14 2-13-2 2-3 3-1zM669 566h1l2 17-1 15-2 3-1-5h-1v-27z"/><path fill="#4C2E30" d="m537 937 2 2 1 4v23h-1l-1-7-3 5h-1v-12z"/><path fill="#442527" d="M1169 980h19l3 1 1 3-17 2-11-3 3-2z"/><path fill="#452628" d="m686 243 8 1v4l-4 2 4 4-8 2h-2v-2l-3 1-4-2 2-2 4-2 1-3-1-2z"/><path fill="#513436" d="m555 687 2 1 1 5-7 2-4 1v3l-5 1-5-1-2-4h6l3-2h3l-1-3z"/><path fill="#4A2D2F" d="m587 906 4 1-1 5 3 1v3l-4 1v2l-2 1-1 3-5-1-2-4h3l-1-4 2-3 2 1 3-3-2-1z"/><path fill="#442527" d="M762 614h7l-4 2 5 2v1l-7 1h-23v-1l6-1-3-2z"/><path fill="#5E4445" d="m417 950 3 3 1 5v7l-2 5-3 1-2 4v-6l-3 1-1-3 3-1 1-3v2h2l-1-4z"/><path fill="#442527" d="M730 621h24l-4 2-8 3h-9l-12-3v-1zM910 598h20l-1 3-9 3-11-1-7-2 2-2zM803 256l9 1 2 5 1 2-3 9h-2l-1-7v-3l2-5-7 3-9-2-1 2v-2h-2v-2zM765 951h2l2 10-1 9-2 1-1 3-2-2 1-6h-2l1-9 1-5z"/><path fill="#FEFEFE" d="m831 624 4 2 2 3-1 2h-7l3 6-6-1v2l-5-1-3-2v-2l7-1h2l-1-3 1-2h5z"/><path fill="#442527" d="M537 355h3v29l-4-1v-22zM732 938h1v9h2l-1 13-2-1-1 5-2-1-1-15h2l-1-9 2 1zM724 808h1l3 12 1 14h-3l-1 4h-1l-1-15zM712 338l3 1 2 4-1 4h8l4-1 1 5-7 1h-4l-6-2v-11zM950 791l9 1-1 2h-2v2l-16 1-4-1v-2l6-2z"/><path fill="#462729" d="M784 964h1v6h2l1 4-3 8h-3l-1-4h-2v-3h2l-1-5h2v-3h2z"/><path fill="#442527" d="M963 786h13l3 2-6 3h-10l-9-2v-1zM674 919l2 1 1 8h-2l-1 2-1-4h-2l1 6-2 8h-3l-1-11 4-1v-3l3-2zM960 231l2 1 1 10-2 8-3-2-2-5v-7h2l-1-3z"/><path fill="#563A3B" d="m1260 906 5 1-1 7-2 7h-2v-6l-6 2v-3h-2v-2l4 1 1-6 2 1z"/><path fill="#442527" d="m1159 968 2 2v4l3-1v2h3l-2 4-6 1-7-1-1-3 6-2v-3h2zM924 691h2l2 5-1 8-2 11h-1l-2-13v-8h2zM486 349h3l1 11-2 8-1-4h-2l-1 2v-13zM637 340l10 1v2h2l-1 2-5 1-9 1-1-2-3-1 3-3zM1240 934h2l-1 6 4 2-2 3h-2l-1 2h-2l-1 5h-1v-12l2-5zM709 751l2 3 1 9-3 6h-2l-1-4v-10l1-3zM458 906l2 3-1 3h3v3l-6 4-1-1-1 6-3 3v-5l-2-1 1-3 2-2 2-1v-2l3-3z"/><path fill="#FEFEFE" d="M849 627h4l2 4h-3l2 5-3 1h-3l-1 2-4-2-1-4 4-2h2z"/><path fill="#442527" d="M713 569h13l3 3-6 2-9 1-3-2-4-2zM674 552l2 2 2 6-1 6-3 8-2-4v-11zM737 922h1l1 5h1v9l-1 8-2-2-1 5h-1l-1-12 2-9z"/><path fill="#482A2C" d="m679 543 4 2 2 6-4 6-3 3-1-11z"/><path fill="#442527" d="m560 335 6 2v2l-4 1v2h-3v-2l-7 1-1-1-1 4h-2l1-8z"/><path fill="#462729" d="m566 946 2 2 2 4v7l-3 1-1 7h-1l-1-7v-13z"/><path fill="#442527" d="M978 581h11l6 2-2 2h-21l-2-2zM589 342h1l1 23v5l-4 2v-15zM522 781h15l2 1v2l-5 1h-9l-11-1 1-2zM703 738l2 4 1 9-1 8-2-2v-3h-2l-1 4v-12zM1083 963l5 1-2 7h2l-1 8-4 1-1-7zM457 971h2l1 7-1 3 4-1 9 2-2 2-9 1v-2l-4-2-4-4 1-3zM922 227l14 1 4 2-4 2-11 1-5-1 2-1v-2l-3-1zM565 786h10l2 4-5 1h-8l-5-1-1-3z"/><path fill="#46282A" d="M797 654h9l4 2-2 1 1 2h-8v2l-9-1 4-2z"/><path fill="#442527" d="m885 323 17 2v1l-7 1 2 2h-13v-2l-3 1 1-3zM367 970l2 4v6l6 2-3 3-2-1-3 1-3-2 2-11zM771 610h14v3l-10 2-1-2h-7l-1-2zM673 774l11 1 3 3-5 2h-8l-3-3zM350 920h1l1 8 1 3-1 5-4 1-2-7 3-9zM559 768l9 1 1 2h-3l1 3h-9l-3-1-1-3zM966 370h18l10 1-4 2h-11v1h-8l-6-1zM890 940h2l2 10-1 8h-3l-1-3v-10zM542 923l3 2v14l-1 6-2-1-1-9zM716 666h11l2 5-9 1-4-3zM719 971l3 1 1 4v8l-4 3-1-3v-8zM379 924h1l2 8h-2l-1 8-3-2-1-8 1-4h2z"/><path fill="#47282A" d="m1209 948 3 1 1 7-2 4-2 1-2 3v-4h-2l1-3h2v-3h-2l2-4z"/><path fill="#442527" d="M569 763h7l3 2h-2v3h-11l-2-2 1-2z"/><path fill="#47282A" d="m898 329 14 1 2 1-1 3h-18l2-2 3-1z"/><path fill="#442527" d="m1163 954 4 1v12l-4 2-1-4z"/><path fill="#FEFEFE" d="m798 648 5 2 1 2 6 2-4 1-10-1-4-2v-2h6z"/><path fill="#442527" d="m1198 909 2 4 1 1v10l-2 5-2-2v-15z"/><path fill="#47282A" d="M856 819h1v5l3 1-1 10-2 2-2-2v-14z"/><path fill="#FEFEFE" d="M890 648h2l1 3v10l-1 6h-2l-1-15z"/><path fill="#442527" d="M759 967h3l1 7 4 1-1 3-2-1-1 2-4 1-1-9h2zM729 660l6 1 3 3-5 2-8-1-1-3zM732 332l2 1v8l1 3-3 3h-2v-2l-3-1 2-1v-6l1-2h2zM545 775h9l2 1-1 3h-12l-3-2zM832 648h5l1 6-10-1-3-3zM446 924l2 4 2 1-1 4-4 9-1-4v-8zM734 655h11l1 4-7 1h-3l-3-4zM787 605h21v2l-15 1-6-2zM788 956l3 3v8h-2l-1 3-2-1v-10zM952 768l6 2-3 1v2l-7 1-4-2 3-3zM1078 364l12 1-4 3h-12l-3-2z"/><path fill="#48292B" d="M1180 912h4l1 8-3 4h-2z"/><path fill="#442527" d="m526 911 8 2v2h9v1h-19v-3zM785 660l13 2 1 2-8 1-3-1-1 2zM873 967l3 1 2 5h-2v2l2 1h-2v2l-4-1v-7zM698 725h1v14l-2 3-1-1v-14zM719 830l2 2 2 6-1 5-4-1-1-3z"/><path fill="#482A2C" d="m781 264 3 1 3 4-2 3h-2l-1 2-1-3h-3l1-4h3z"/><path fill="#442527" d="M622 947h15l6 1-4 4v-3l-8 1-7-1-1 3zM1073 405h17v1l-7 2h-10l-2-2zM479 945l5 3-2 9-4-2 2-1v-4l-3 1zM748 808l6 1h2l3 4-5 2-2-2h-6zM541 694l6 1v4l-5 1-5-1-2-4h6zM702 575h10l1 3h-8v2l-4-1-1-3zM1260 972l3 1 1 4-2 6h-2l-1-6-2-2z"/><path fill="#482A2C" d="m355 910 2 2v11h-3v-6l-2-1z"/><path fill="#442527" d="M1030 581h7l3 1-1 3h-8l-2-1zM391 1000h6l4 1-1 3h-11l-2-2h4zM531 700h9l-1 4-9 2v-4zM950 711l3 3-1 2-7 1-1-3 1-2z"/><path fill="#FEFEFE" d="m885 641 2 1 1 4-1 7h-2l-2-9z"/><path fill="#442527" d="M1243 923h3l1 5-2 2 1 3-3 2-1-10zM931 919h2l-1 5h2v2h-2l-1 4-2-4-2-1h2l1-5z"/><path fill="#FEFEFE" d="M983 542h8l2 3h-15l1-2z"/><path fill="#442527" d="m965 954 3 3v9l-3 1-1-4v-8zM1221 928l5 2v2l-5 3-2-1-1-4zM718 912h5l-1 3h14v1h-19zM714 841l4 4v3h-3l-1 2-2-2v-4h2zM684 273h4v10h-1l-1-7-1 13h-1l-1-15zM610 978l4 2 3 2v2l-7 1v-3h-2l1-2z"/><path fill="#FEFEFE" d="m879 300 2 3-1 11h-2v-12z"/><path fill="#442527" d="m994 941 2 2-1 4 2 1-3 3h-2l-1-4h2l-1-5zM745 649l8 2v2l-6 1-6-2 2-1h3zM1092 359h9l2 2-3 1h-11zM945 228h12l-1 4h-6l-5-3zM383 920h2l1 4 1 3h-2l-1 2-2 1-1-6h2zM935 911h6l1 6-2 1v-3h-2v3h-2zM336 907h14l2 2-5 1-12-1zM1039 523l1 3 2 1-4 1-8-2 3-2zM788 261h3l1 2 2 1-7 3-3-5zM1283 946l3 1v9h-3l-1-9zM760 940l2 3v7l-4 1 1-8zM759 814l8 1 1 3-8 1-3-3zM941 906l5 1h3v2h-2l-1 2v-2h-2v2h-3l-1-4zM752 644l9 1v3h-5v2h-3z"/></svg>